ffmpeg version 3.4.8-0ubuntu0.2 Copyright (c) 2000-2020 the FFmpeg developers
  built with gcc 7 (Ubuntu 7.5.0-3ubuntu1~18.04)
  configuration: --prefix=/usr --extra-version=0ubuntu0.2 --toolchain=hardened --libdir=/usr/lib/x86_64-linux-gnu --incdir=/usr/include/x86_64-linux-gnu --enable-gpl --disable-stripping --enable-avresample --enable-avisynth --enable-gnutls --enable-ladspa --enable-libass --enable-libbluray --enable-libbs2b --enable-libcaca --enable-libcdio --enable-libflite --enable-libfontconfig --enable-libfreetype --enable-libfribidi --enable-libgme --enable-libgsm --enable-libmp3lame --enable-libmysofa --enable-libopenjpeg --enable-libopenmpt --enable-libopus --enable-libpulse --enable-librubberband --enable-librsvg --enable-libshine --enable-libsnappy --enable-libsoxr --enable-libspeex --enable-libssh --enable-libtheora --enable-libtwolame --enable-libvorbis --enable-libvpx --enable-libwavpack --enable-libwebp --enable-libx265 --enable-libxml2 --enable-libxvid --enable-libzmq --enable-libzvbi --enable-omx --enable-openal --enable-opengl --enable-sdl2 --enable-libdc1394 --enable-libdrm --enable-libiec61883 --enable-chromaprint --enable-frei0r --enable-libopencv --enable-libx264 --enable-shared
  libavutil      55. 78.100 / 55. 78.100
  libavcodec     57.107.100 / 57.107.100
  libavformat    57. 83.100 / 57. 83.100
  libavdevice    57. 10.100 / 57. 10.100
  libavfilter     6.107.100 /  6.107.100
  libavresample   3.  7.  0 /  3.  7.  0
  libswscale      4.  8.100 /  4.  8.100
  libswresample   2.  9.100 /  2.  9.100
  libpostproc    54.  7.100 / 54.  7.100
[rawvideo @ 0x564619c0da20] Estimating duration from bitrate, this may be inaccurate
Input #0, rawvideo, from '../../SVC-Encoder-20220109T061506Z-001/SVC-Encoder/Dataset/RollerCoaster/6f_2x2/tile_yuv/f0_t3_480x480.yuv':
  Duration: 00:00:10.00, start: 0.000000, bitrate: 82944 kb/s
    Stream #0:0: Video: rawvideo (I420 / 0x30323449), yuv420p, 480x480, 82944 kb/s, 30 tbr, 30 tbn, 30 tbc
Stream mapping:
  Stream #0:0 -> #0:0 (rawvideo (native) -> h264 (libx264))
Press [q] to stop, [?] for help
[libx264 @ 0x564619c1ac60] using cpu capabilities: MMX2 SSE2Fast LZCNT SSSE3 SSE4.2 AVX
[libx264 @ 0x564619c1ac60] profile High, level 3.0
Output #0, rawvideo, to 'RollerCoaster_f0_t3_480x480_x264_QP_32.h264':
  Metadata:
    encoder         : Lavf57.83.100
    Stream #0:0: Video: h264 (libx264), yuv420p, 480x480, q=-1--1, 30 fps, 30 tbn, 30 tbc
    Metadata:
      encoder         : Lavc57.107.100 libx264
    Side data:
      cpb: bitrate max/min/avg: 0/0/0 buffer size: 0 vbv_delay: -1
frame=  109 fps=0.0 q=38.0 PSNR=Y:nan U:nan V:nan *:nan size=      94kB time=00:00:02.20 bitrate= 351.6kbits/s speed=4.37x    frame=  178 fps=176 q=38.0 PSNR=Y:nan U:nan V:nan *:nan size=     184kB time=00:00:04.50 bitrate= 334.1kbits/s speed=4.44x    frame=  250 fps=163 q=38.0 PSNR=Y:nan U:nan V:nan *:nan size=     256kB time=00:00:06.90 bitrate= 303.9kbits/s speed=4.51x    frame=  300 fps=131 q=38.0 LPSNR=Y:inf U:inf V:inf *:inf size=     397kB time=00:00:09.93 bitrate= 327.2kbits/s speed=4.35x    
video:397kB audio:0kB subtitle:0kB other streams:0kB global headers:0kB muxing overhead: 0.000000%
[libx264 @ 0x564619c1ac60] frame I:2     Avg QP:31.70  size: 11878  PSNR Mean Y:36.99 U:41.04 V:44.32 Avg:38.16 Global:38.15
[libx264 @ 0x564619c1ac60] frame P:76    Avg QP:33.17  size:  2996  PSNR Mean Y:35.44 U:41.19 V:44.33 Avg:36.79 Global:36.77
[libx264 @ 0x564619c1ac60] frame B:222   Avg QP:37.48  size:   697  PSNR Mean Y:35.04 U:41.18 V:44.33 Avg:36.42 Global:36.41
[libx264 @ 0x564619c1ac60] consecutive B-frames:  1.0%  0.0%  3.0% 96.0%
[libx264 @ 0x564619c1ac60] mb I  I16..4: 12.5% 56.7% 30.8%
[libx264 @ 0x564619c1ac60] mb P  I16..4:  3.0%  6.3%  0.6%  P16..4: 36.2% 16.1%  5.2%  0.0%  0.0%    skip:32.6%
[libx264 @ 0x564619c1ac60] mb B  I16..4:  0.2%  0.3%  0.0%  B16..8: 33.4%  4.7%  0.2%  direct: 0.2%  skip:60.9%  L0:39.0% L1:57.0% BI: 4.0%
[libx264 @ 0x564619c1ac60] 8x8 transform intra:61.1% inter:78.1%
[libx264 @ 0x564619c1ac60] coded y,uvDC,uvAC intra: 35.1% 49.6% 13.0% inter: 5.8% 5.5% 0.0%
[libx264 @ 0x564619c1ac60] i16 v,h,dc,p: 15% 48% 15% 22%
[libx264 @ 0x564619c1ac60] i8 v,h,dc,ddl,ddr,vr,hd,vl,hu:  6% 26% 30%  1% 13% 11%  8%  1%  4%
[libx264 @ 0x564619c1ac60] i4 v,h,dc,ddl,ddr,vr,hd,vl,hu: 13% 23% 15%  1% 21% 15%  8%  2%  2%
[libx264 @ 0x564619c1ac60] i8c dc,h,v,p: 52% 30% 10%  8%
[libx264 @ 0x564619c1ac60] Weighted P-Frames: Y:1.3% UV:0.0%
[libx264 @ 0x564619c1ac60] ref P L0: 62.4% 15.4% 16.4%  5.8%  0.1%
[libx264 @ 0x564619c1ac60] ref B L0: 90.8%  7.8%  1.4%
[libx264 @ 0x564619c1ac60] ref B L1: 93.7%  6.3%
[libx264 @ 0x564619c1ac60] PSNR Mean Y:35.155 U:41.185 V:44.333 Avg:36.530 Global:36.512 kb/s:324.97
